<?xml version="1.0" encoding="UTF-8" standalone="no"?>
<svg
   xmlns:dc="http://purl.org/dc/elements/1.1/"
   xmlns:cc="http://creativecommons.org/ns#"
   xmlns:rdf="http://www.w3.org/1999/02/22-rdf-syntax-ns#"
   xmlns:svg="http://www.w3.org/2000/svg"
   xmlns="http://www.w3.org/2000/svg"
   xmlns:sodipodi="http://sodipodi.sourceforge.net/DTD/sodipodi-0.dtd"
   xmlns:inkscape="http://www.inkscape.org/namespaces/inkscape"
   width="19.885975mm"
   height="14.133545mm"
   viewBox="0 0 19.885975 14.133545"
   version="1.1"
   id="svg8037"
   inkscape:version="1.0.1 (1.0.1+r73)"
   sodipodi:docname="design_17.svg">
  <defs
     id="defs8031" />
  <sodipodi:namedview
     id="base"
     pagecolor="#ffffff"
     bordercolor="#666666"
     borderopacity="1.0"
     inkscape:pageopacity="0.0"
     inkscape:pageshadow="2"
     inkscape:zoom="1.33"
     inkscape:cx="22.313271"
     inkscape:cy="54.04412"
     inkscape:document-units="mm"
     inkscape:current-layer="layer1"
     inkscape:document-rotation="0"
     showgrid="false"
     fit-margin-top="1"
     fit-margin-right="1"
     fit-margin-bottom="1"
     fit-margin-left="1"
     inkscape:window-width="1853"
     inkscape:window-height="1025"
     inkscape:window-x="67"
     inkscape:window-y="27"
     inkscape:window-maximized="1" />
  <metadata
     id="metadata8034">
    <rdf:RDF>
      <cc:Work
         rdf:about="">
        <dc:format>image/svg+xml</dc:format>
        <dc:type
           rdf:resource="http://purl.org/dc/dcmitype/StillImage" />
        <dc:title></dc:title>
      </cc:Work>
    </rdf:RDF>
  </metadata>
  <g
     inkscape:label="Capa 1"
     inkscape:groupmode="layer"
     id="layer1"
     transform="translate(-99.929626,-62.25095)">
    <g
       id="g13159"
       transform="matrix(0.35277777,0,0,-0.35277777,-95.288368,152.59827)">
      <g
         id="g2796"
         transform="translate(606.2156,227.2565)">
        <path
           d="m 0,0 h -41.196 c -0.237,0 -0.429,0.192 -0.429,0.428 v 24.889 c 0,0.237 0.192,0.429 0.429,0.429 H 0 c 0.236,0 0.428,-0.192 0.428,-0.429 V 0.428 C 0.428,0.192 0.236,0 0,0"
           style="fill:#dadada;fill-opacity:1;fill-rule:nonzero;stroke:none"
           id="path2798" />
      </g>
      <g
         id="g2800"
         transform="translate(565.4719,252.737)">
        <path
           d="m 0,0 c -0.34,0 -0.615,-0.276 -0.615,-0.616 v -23.983 c 0,-0.339 0.275,-0.616 0.615,-0.616 h 40.291 c 0.34,0 0.616,0.277 0.616,0.616 V -0.616 C 40.907,-0.276 40.631,0 40.291,0 Z M 40.291,-25.746 H 0 c -0.632,0 -1.146,0.515 -1.146,1.147 v 23.983 c 0,0.632 0.514,1.147 1.146,1.147 h 40.291 c 0.632,0 1.146,-0.515 1.146,-1.147 v -23.983 c 0,-0.632 -0.514,-1.147 -1.146,-1.147"
           style="fill:#41404d;fill-opacity:1;fill-rule:nonzero;stroke:none"
           id="path2802" />
      </g>
      <g
         id="g2804"
         transform="translate(601.3748,250.2966)">
        <path
           d="m 0,0 h 1.682 c 0.487,0 0.881,-0.395 0.881,-0.881 v -23.984 c 0,-0.487 -0.394,-0.881 -0.881,-0.881 h -40.29 c -0.487,0 -0.881,0.394 -0.881,0.881 v 23.984 c 0,0.486 0.394,0.881 0.881,0.881 h 35.127"
           style="fill:#dadada;fill-opacity:1;fill-rule:nonzero;stroke:none"
           id="path2806" />
      </g>
      <g
         id="g2808"
         transform="translate(603.0569,224.2853)">
        <path
           d="m 0,0 h -40.291 c -0.632,0 -1.146,0.514 -1.146,1.146 V 25.13 c 0,0.632 0.514,1.147 1.146,1.147 h 35.128 c 0.146,0 0.266,-0.119 0.266,-0.266 0,-0.146 -0.12,-0.265 -0.266,-0.265 h -35.128 c -0.339,0 -0.615,-0.276 -0.615,-0.616 V 1.146 c 0,-0.339 0.276,-0.616 0.615,-0.616 L 0,0.53 c 0.34,0 0.616,0.277 0.616,0.616 V 25.13 c 0,0.34 -0.276,0.616 -0.616,0.616 h -1.682 c -0.146,0 -0.265,0.119 -0.265,0.265 0,0.147 0.119,0.266 0.265,0.266 H 0 c 0.632,0 1.146,-0.515 1.146,-1.147 V 1.146 C 1.146,0.514 0.632,0 0,0"
           style="fill:#41404d;fill-opacity:1;fill-rule:nonzero;stroke:none"
           id="path2810" />
      </g>
      <g
         id="g2812"
         transform="translate(595.9827,247.5905)">
        <path
           d="M 0,0 H 4.368 C 4.855,0 5.25,-0.395 5.25,-0.881 v -23.984 c 0,-0.486 -0.395,-0.881 -0.882,-0.881 h -40.29 c -0.487,0 -0.881,0.395 -0.881,0.881 v 23.984 c 0,0.486 0.394,0.881 0.881,0.881 h 30.086"
           style="fill:#dadada;fill-opacity:1;fill-rule:nonzero;stroke:none"
           id="path2814" />
      </g>
      <g
         id="g2816"
         transform="translate(600.3513,221.5793)">
        <path
           d="m 0,0 h -40.291 c -0.632,0 -1.146,0.515 -1.146,1.147 V 25.13 c 0,0.632 0.514,1.146 1.146,1.146 h 30.086 c 0.146,0 0.266,-0.118 0.266,-0.265 0,-0.147 -0.12,-0.265 -0.266,-0.265 h -30.086 c -0.34,0 -0.615,-0.276 -0.615,-0.616 V 1.147 c 0,-0.34 0.275,-0.616 0.615,-0.616 H 0 c 0.34,0 0.615,0.276 0.615,0.616 V 25.13 c 0,0.34 -0.275,0.616 -0.615,0.616 h -4.369 c -0.146,0 -0.265,0.118 -0.265,0.265 0,0.147 0.119,0.265 0.265,0.265 H 0 c 0.632,0 1.146,-0.514 1.146,-1.146 V 1.147 C 1.146,0.515 0.632,0 0,0"
           style="fill:#41404d;fill-opacity:1;fill-rule:nonzero;stroke:none"
           id="path2818" />
      </g>
      <g
         id="g2820"
         transform="translate(598.0979,219.1389)">
        <path
           d="m 0,0 h -41.196 c -0.237,0 -0.428,0.192 -0.428,0.428 v 24.889 c 0,0.237 0.191,0.429 0.428,0.429 H 0 c 0.236,0 0.428,-0.192 0.428,-0.429 V 0.428 C 0.428,0.192 0.236,0 0,0"
           style="fill:#ffffff;fill-opacity:1;fill-rule:nonzero;stroke:none"
           id="path2822" />
      </g>
      <g
         id="g2824"
         transform="translate(588.8645,218.8737)">
        <path
           d="m 0,0 h -31.51 c -0.632,0 -1.146,0.515 -1.146,1.146 V 25.13 c 0,0.632 0.514,1.146 1.146,1.146 h 6.005 c 0.146,0 0.265,-0.119 0.265,-0.265 0,-0.147 -0.119,-0.265 -0.265,-0.265 h -6.005 c -0.34,0 -0.615,-0.277 -0.615,-0.616 V 1.146 c 0,-0.339 0.275,-0.616 0.615,-0.616 L 0,0.53 C 0.146,0.53 0.266,0.412 0.266,0.265 0.266,0.119 0.146,0 0,0"
           style="fill:#41404d;fill-opacity:1;fill-rule:nonzero;stroke:none"
           id="path2826" />
      </g>
      <g
         id="g2828"
         transform="translate(597.6453,218.8737)">
        <path
           d="m 0,0 h -4.96 c -0.147,0 -0.266,0.119 -0.266,0.265 0,0.147 0.119,0.265 0.266,0.265 H 0 c 0.34,0 0.616,0.277 0.616,0.616 V 25.13 c 0,0.339 -0.276,0.616 -0.616,0.616 h -16.649 c -0.146,0 -0.266,0.118 -0.266,0.265 0,0.146 0.12,0.265 0.266,0.265 H 0 c 0.632,0 1.146,-0.514 1.146,-1.146 V 1.146 C 1.146,0.515 0.632,0 0,0"
           style="fill:#41404d;fill-opacity:1;fill-rule:nonzero;stroke:none"
           id="path2830" />
      </g>
      <g
         id="g2832"
         transform="translate(578.738,244.6193)">
        <path
           d="m 0,0 h -5.762 c -0.146,0 -0.265,0.119 -0.265,0.265 0,0.147 0.119,0.265 0.265,0.265 H 0 C 0.146,0.53 0.265,0.412 0.265,0.265 0.265,0.119 0.146,0 0,0"
           style="fill:#41404d;fill-opacity:1;fill-rule:nonzero;stroke:none"
           id="path2834" />
      </g>
      <g
         id="g2836"
         transform="translate(572.5974,235.7556)">
        <path
           d="m 0,0 c 0,-3.284 -2.662,-5.947 -5.947,-5.947 -3.284,0 -5.946,2.663 -5.946,5.947 0,3.284 2.662,5.947 5.946,5.947 C -2.662,5.947 0,3.284 0,0"
           style="fill:#f4c151;fill-opacity:1;fill-rule:nonzero;stroke:none"
           id="path2838" />
      </g>
      <g
         id="g2840"
         transform="translate(566.6501,241.4367)">
        <path
           d="m 0,0 c -3.133,0 -5.681,-2.548 -5.681,-5.681 0,-3.133 2.548,-5.682 5.681,-5.682 3.133,0 5.682,2.549 5.682,5.682 C 5.682,-2.548 3.133,0 0,0 m 0,-11.893 c -3.425,0 -6.211,2.787 -6.211,6.212 0,3.425 2.786,6.212 6.211,6.212 3.426,0 6.213,-2.787 6.213,-6.212 0,-3.425 -2.787,-6.212 -6.213,-6.212"
           style="fill:#41404d;fill-opacity:1;fill-rule:nonzero;stroke:none"
           id="path2842" />
      </g>
      <g
         id="g2844"
         transform="translate(572.5935,235.7487)">
        <path
           d="M 0,0 H -5.943 V 5.954 C -2.664,5.954 0,3.29 0,0"
           style="fill:#ffffff;fill-opacity:1;fill-rule:nonzero;stroke:none"
           id="path2846" />
      </g>
      <g
         id="g2848"
         transform="translate(566.9158,236.0143)">
        <path
           d="M 0,0 H 5.406 C 5.271,2.925 2.92,5.281 0,5.416 Z m 5.678,-0.531 h -5.944 c -0.146,0 -0.265,0.119 -0.265,0.265 v 5.953 c 0,0.147 0.119,0.266 0.265,0.266 3.424,0 6.209,-2.79 6.209,-6.219 0,-0.146 -0.119,-0.265 -0.265,-0.265"
           style="fill:#41404d;fill-opacity:1;fill-rule:nonzero;stroke:none"
           id="path2850" />
      </g>
      <g
         id="g2852"
         transform="translate(581.2239,222.6071)">
        <path
           d="m 0,0 c -0.22,0 -0.398,0.178 -0.398,0.398 v 8.251 c 0,0.22 0.178,0.398 0.398,0.398 0.22,0 0.398,-0.178 0.398,-0.398 V 0.398 C 0.398,0.178 0.22,0 0,0"
           style="fill:#f4c151;fill-opacity:1;fill-rule:nonzero;stroke:none"
           id="path2854" />
      </g>
      <g
         id="g2856"
         transform="translate(581.2239,232.1848)">
        <path
           d="M 0,0 C -0.512,0 -0.929,-0.417 -0.929,-0.928 V -9.18 c 0,-0.511 0.417,-0.928 0.929,-0.928 0.512,0 0.928,0.417 0.928,0.928 v 8.252 C 0.928,-0.417 0.512,0 0,0 m 0,-0.531 c 0.22,0 0.398,-0.178 0.398,-0.397 V -9.18 C 0.398,-9.399 0.22,-9.578 0,-9.578 c -0.22,0 -0.398,0.179 -0.398,0.398 v 8.252 c 0,0.219 0.178,0.397 0.398,0.397"
           style="fill:#41404d;fill-opacity:1;fill-rule:nonzero;stroke:none"
           id="path2858" />
      </g>
      <g
         id="g2860"
         transform="translate(585.0437,222.6071)">
        <path
           d="m 0,0 c -0.22,0 -0.398,0.178 -0.398,0.398 v 4.361 c 0,0.22 0.178,0.398 0.398,0.398 0.22,0 0.398,-0.178 0.398,-0.398 V 0.398 C 0.398,0.178 0.22,0 0,0"
           style="fill:#f4c151;fill-opacity:1;fill-rule:nonzero;stroke:none"
           id="path2862" />
      </g>
      <g
         id="g2864"
         transform="translate(585.0437,228.2946)">
        <path
           d="M 0,0 C -0.512,0 -0.929,-0.417 -0.929,-0.929 V -5.29 c 0,-0.511 0.417,-0.928 0.929,-0.928 0.512,0 0.928,0.417 0.928,0.928 v 4.361 C 0.928,-0.417 0.512,0 0,0 m 0,-0.531 c 0.22,0 0.398,-0.178 0.398,-0.398 V -5.29 C 0.398,-5.509 0.22,-5.687 0,-5.687 c -0.22,0 -0.398,0.178 -0.398,0.397 v 4.361 c 0,0.22 0.178,0.398 0.398,0.398"
           style="fill:#41404d;fill-opacity:1;fill-rule:nonzero;stroke:none"
           id="path2866" />
      </g>
      <g
         id="g2868"
         transform="translate(588.8645,222.6071)">
        <path
           d="m 0,0 c -0.22,0 -0.398,0.178 -0.398,0.398 v 11.894 c 0,0.22 0.178,0.398 0.398,0.398 0.22,0 0.398,-0.178 0.398,-0.398 V 0.398 C 0.398,0.178 0.22,0 0,0"
           style="fill:#f4c151;fill-opacity:1;fill-rule:nonzero;stroke:none"
           id="path2870" />
      </g>
      <g
         id="g2872"
         transform="translate(588.8645,235.8273)">
        <path
           d="m 0,0 c -0.512,0 -0.929,-0.417 -0.929,-0.928 v -11.894 c 0,-0.512 0.417,-0.928 0.929,-0.928 0.512,0 0.928,0.416 0.928,0.928 V -0.928 C 0.928,-0.417 0.512,0 0,0 m 0,-0.53 c 0.22,0 0.398,-0.178 0.398,-0.398 v -11.894 c 0,-0.22 -0.178,-0.398 -0.398,-0.398 -0.22,0 -0.398,0.178 -0.398,0.398 v 11.894 c 0,0.22 0.178,0.398 0.398,0.398"
           style="fill:#41404d;fill-opacity:1;fill-rule:nonzero;stroke:none"
           id="path2874" />
      </g>
      <g
         id="g2876"
         transform="translate(592.6843,222.6071)">
        <path
           d="m 0,0 c -0.22,0 -0.398,0.178 -0.398,0.398 v 10.021 c 0,0.22 0.178,0.399 0.398,0.399 0.22,0 0.398,-0.179 0.398,-0.399 V 0.398 C 0.398,0.178 0.22,0 0,0"
           style="fill:#f4c151;fill-opacity:1;fill-rule:nonzero;stroke:none"
           id="path2878" />
      </g>
      <g
         id="g2880"
         transform="translate(592.6843,233.9553)">
        <path
           d="M 0,0 C -0.512,0 -0.929,-0.417 -0.929,-0.928 V -10.95 c 0,-0.512 0.417,-0.928 0.929,-0.928 0.512,0 0.929,0.416 0.929,0.928 V -0.928 C 0.929,-0.417 0.512,0 0,0 m 0,-0.53 c 0.22,0 0.398,-0.178 0.398,-0.398 V -10.95 c 0,-0.22 -0.178,-0.398 -0.398,-0.398 -0.22,0 -0.398,0.178 -0.398,0.398 v 10.022 c 0,0.22 0.178,0.398 0.398,0.398"
           style="fill:#41404d;fill-opacity:1;fill-rule:nonzero;stroke:none"
           id="path2882" />
      </g>
      <g
         id="g2884"
         transform="translate(560.7043,227.0012)">
        <path
           d="M 0,0 H 14.37"
           style="fill:#ffffff;fill-opacity:1;fill-rule:nonzero;stroke:none"
           id="path2886" />
      </g>
      <g
         id="g2888"
         transform="translate(575.0735,226.7355)">
        <path
           d="m 0,0 h -14.37 c -0.146,0 -0.265,0.119 -0.265,0.265 0,0.147 0.119,0.266 0.265,0.266 H 0 C 0.146,0.531 0.265,0.412 0.265,0.265 0.265,0.119 0.146,0 0,0"
           style="fill:#41404d;fill-opacity:1;fill-rule:nonzero;stroke:none"
           id="path2890" />
      </g>
      <g
         id="g2892"
         transform="translate(560.7043,225.0524)">
        <path
           d="M 0,0 H 14.37"
           style="fill:#ffffff;fill-opacity:1;fill-rule:nonzero;stroke:none"
           id="path2894" />
      </g>
      <g
         id="g2896"
         transform="translate(575.0735,224.7868)">
        <path
           d="m 0,0 h -14.37 c -0.146,0 -0.265,0.119 -0.265,0.265 0,0.147 0.119,0.266 0.265,0.266 H 0 C 0.146,0.531 0.265,0.412 0.265,0.265 0.265,0.119 0.146,0 0,0"
           style="fill:#41404d;fill-opacity:1;fill-rule:nonzero;stroke:none"
           id="path2898" />
      </g>
      <g
         id="g2900"
         transform="translate(560.7043,223.1037)">
        <path
           d="M 0,0 H 8.119"
           style="fill:#ffffff;fill-opacity:1;fill-rule:nonzero;stroke:none"
           id="path2902" />
      </g>
      <g
         id="g2904"
         transform="translate(568.8235,222.8381)">
        <path
           d="m 0,0 h -8.12 c -0.146,0 -0.265,0.119 -0.265,0.265 0,0.147 0.119,0.266 0.265,0.266 H 0 C 0.146,0.531 0.265,0.412 0.265,0.265 0.265,0.119 0.146,0 0,0"
           style="fill:#41404d;fill-opacity:1;fill-rule:nonzero;stroke:none"
           id="path2906" />
      </g>
      <g
         id="g2908"
         transform="translate(580.2058,240.7917)">
        <path
           d="M 0,0 H 14.37"
           style="fill:#ffffff;fill-opacity:1;fill-rule:nonzero;stroke:none"
           id="path2910" />
      </g>
      <g
         id="g2912"
         transform="translate(594.5759,240.5266)">
        <path
           d="m 0,0 h -14.371 c -0.146,0 -0.265,0.119 -0.265,0.265 0,0.147 0.119,0.265 0.265,0.265 H 0 C 0.146,0.53 0.265,0.412 0.265,0.265 0.265,0.119 0.146,0 0,0"
           style="fill:#41404d;fill-opacity:1;fill-rule:nonzero;stroke:none"
           id="path2914" />
      </g>
      <g
         id="g2916"
         transform="translate(580.2058,238.843)">
        <path
           d="M 0,0 H 8.12"
           style="fill:#ffffff;fill-opacity:1;fill-rule:nonzero;stroke:none"
           id="path2918" />
      </g>
      <g
         id="g2920"
         transform="translate(588.325,238.5773)">
        <path
           d="m 0,0 h -8.12 c -0.146,0 -0.265,0.119 -0.265,0.266 0,0.146 0.119,0.265 0.265,0.265 H 0 C 0.146,0.531 0.265,0.412 0.265,0.266 0.265,0.119 0.146,0 0,0"
           style="fill:#41404d;fill-opacity:1;fill-rule:nonzero;stroke:none"
           id="path2922" />
      </g>
    </g>
  </g>
</svg>
